<svg width="22" height="22" viewBox="0 0 22 22" fill="none" xmlns="http://www.w3.org/2000/svg">
<circle cx="11" cy="11" r="11" fill="#726A8A"/>
<path d="M12.105 8.86719H10.0899C9.56818 8.86719 9.14404 9.29132 9.14404 9.81303V10.3566H13.0489V9.81303C13.0489 9.29132 12.6267 8.86719 12.105 8.86719Z" fill="white"/>
<path d="M14.3813 6H7.81422C7.1591 6 6.62744 6.53166 6.62744 7.18678V10.4046C6.75687 10.3728 6.89028 10.3568 7.02967 10.3568H8.45739V9.81322C8.45739 8.91119 9.19017 8.17842 10.0922 8.17842H12.1073C13.0094 8.17842 13.7421 8.91119 13.7421 9.81322V10.3568H15.1699C15.3073 10.3568 15.4427 10.3728 15.5721 10.4046V7.18678C15.5681 6.53166 15.0364 6 14.3813 6Z" fill="white"/>
<path d="M15.1677 11.0459H13.3955H8.79968H7.02748C6.46197 11.0459 6 11.5079 6 12.0754V14.1303H16.1951V12.0754C16.1951 11.5079 15.7332 11.0459 15.1677 11.0459Z" fill="white"/>
<path d="M6.62744 14.8213V15.6556C6.62744 15.8468 6.78276 16.0001 6.97193 16.0001C7.16109 16.0001 7.31641 15.8448 7.31641 15.6556V14.8213H6.62744Z" fill="white"/>
<path d="M14.8789 14.8213V15.6556C14.8789 15.8468 15.0342 16.0001 15.2234 16.0001C15.4126 16.0001 15.5679 15.8448 15.5679 15.6556V14.8213H14.8789Z" fill="white"/>
</svg>
