<svg width="30" height="30" viewBox="0 0 30 30" fill="none" xmlns="http://www.w3.org/2000/svg">
<path d="M29.9998 15C29.9998 6.71484 23.3521 0 15.1498 0C6.9475 0 0.299805 6.71484 0.299805 15C0.299805 23.2852 6.9475 30 15.1498 30C15.2368 30 15.3238 30 15.4108 29.9941V18.3223H12.2204V14.5664H15.4108V11.8008C15.4108 8.5957 17.3483 6.84961 20.1791 6.84961C21.5365 6.84961 22.7024 6.94922 23.0389 6.99609V10.3477H21.0898C19.5526 10.3477 19.251 11.0859 19.251 12.1699V14.5605H22.9345L22.453 18.3164H19.251V29.4199C25.4578 27.6211 29.9998 21.8496 29.9998 15Z" fill="#ED7180"/>
</svg>
