<svg width="280" height="241" viewBox="0 0 280 241" fill="none" xmlns="http://www.w3.org/2000/svg">
<path d="M835.897 21.7169L809.603 6.51928L786.956 26.7545L760.652 11.5579L738.005 31.7931L711.7 16.5965L689.063 36.8306L662.759 21.6341L640.112 41.8692L613.818 26.6716L591.17 46.9068L564.866 31.7102L542.219 51.9454L515.925 36.7478L493.278 56.983L466.983 41.7854L444.336 62.0206L418.032 46.824L395.385 67.0592L369.091 51.8616L346.443 72.0968L320.149 56.8992L297.502 77.1343L271.198 61.9378L248.551 82.1729L222.256 66.9753L199.609 87.2105L173.315 72.0129L150.658 92.2491L124.364 77.0515L101.716 97.2867L75.4221 82.0891L52.7749 102.324L26.4707 87.1277L3.82356 107.363" stroke="#ED7080" stroke-width="10" stroke-miterlimit="10"/>
<path d="M840.338 64.8585L814.044 49.6609L791.396 69.8961L765.092 54.6995L742.445 74.9347L716.141 59.7381L693.504 79.9722L667.199 64.7757L644.552 85.0108L618.258 69.8132L595.611 90.0484L569.307 74.8518L546.659 95.087L520.365 79.8894L497.718 100.125L471.424 84.927L448.777 105.162L422.472 89.9656L399.825 110.201L373.531 95.0032L350.884 115.238L324.59 100.041L301.942 120.276L275.638 105.079L252.991 125.315L226.697 110.117L204.05 130.352L177.755 115.155L155.098 135.391L128.804 120.193L106.157 140.428L79.8625 125.231L57.2154 145.466L30.9111 130.269L8.26399 150.504" stroke="#ED7080" stroke-width="10" stroke-miterlimit="10"/>
<path d="M844.779 108.001L818.484 92.8035L795.837 113.039L769.533 97.8421L746.886 118.077L720.582 102.881L697.944 123.115L671.64 107.918L648.993 128.153L622.699 112.956L600.052 133.191L573.748 117.994L551.1 138.23L524.806 123.032L502.159 143.267L475.865 128.07L453.217 148.305L426.913 133.108L404.266 153.343L377.972 138.146L355.325 158.381L329.03 143.183L306.383 163.419L280.079 148.222L257.432 168.457L231.138 153.26L208.491 173.495L182.196 158.297L159.539 178.533L133.245 163.336L110.598 183.571L84.3034 168.373L61.6563 188.608L35.3521 173.412L12.7049 193.647" stroke="#ED7080" stroke-width="10" stroke-miterlimit="10"/>
<path d="M849.219 151.143L822.925 135.945L800.278 156.18L773.974 140.984L751.326 161.219L725.022 146.022L702.385 166.256L676.081 151.06L653.434 171.295L627.139 156.097L604.492 176.333L578.188 161.136L555.541 181.371L529.247 166.174L506.599 186.409L480.305 171.211L457.658 191.446L431.354 176.25L408.707 196.485L382.412 181.287L359.765 201.523L333.471 186.325L310.824 206.56L284.519 191.364L261.872 211.599L235.578 196.401L212.931 216.636L186.637 201.439L163.98 221.675L137.685 206.477L115.038 226.712L88.7439 211.515L66.0967 231.75L39.7925 216.553L17.1453 236.789" stroke="#ED7080" stroke-width="10" stroke-miterlimit="10"/>
</svg>
