<svg width="25" height="25" viewBox="0 0 25 25" fill="none" xmlns="http://www.w3.org/2000/svg">
<path d="M24.9369 21.4219C24.351 18.6064 22.7982 16.0444 20.5653 14.208C19.5092 13.3394 18.3226 12.6538 17.0594 12.1685C17.0292 12.1533 16.9979 12.1396 16.9652 12.1274C16.8036 12.0669 16.6405 12.0098 16.4774 11.9561C18.0936 10.7432 19.141 8.81201 19.141 6.64062C19.141 2.979 16.162 0 12.5004 0C8.83874 0 5.85974 2.979 5.85974 6.64062C5.85974 8.81201 6.90759 10.7432 8.5238 11.9556C8.36023 12.0093 8.19763 12.0664 8.03601 12.127C8.00378 12.1392 7.97204 12.1528 7.94177 12.168C6.67859 12.6533 5.49158 13.3394 4.43591 14.2075C2.20251 16.0449 0.649778 18.6069 0.0638403 21.4219C-0.119753 22.3042 0.0999731 23.21 0.667356 23.9077C1.23181 24.6021 2.06872 25 2.96374 25H18.5795H18.8983H22.037C22.932 25 23.7689 24.6021 24.3334 23.9077C24.9008 23.2104 25.1205 22.3042 24.9369 21.4219ZM7.81286 6.64062C7.81286 4.05615 9.9154 1.95312 12.5004 1.95312C15.0848 1.95312 17.1879 4.05615 17.1879 6.64062C17.1879 8.52197 16.0741 10.1475 14.4711 10.8931C14.4711 10.8931 14.4706 10.8931 14.4706 10.8936C14.4374 10.9092 14.4042 10.9238 14.3705 10.9385C14.3646 10.9409 14.3583 10.9434 14.3524 10.9463C14.3246 10.9585 14.2963 10.9702 14.2684 10.9819C14.266 10.9829 14.2635 10.9839 14.2616 10.9849C14.2299 10.998 14.1976 11.0107 14.1654 11.0229C14.1576 11.0259 14.1493 11.0288 14.1415 11.0317C14.1146 11.042 14.0878 11.0518 14.0609 11.0615C14.0516 11.0649 14.0424 11.0679 14.0331 11.0708C14.0072 11.0796 13.9813 11.0889 13.9554 11.0972C13.9384 11.1025 13.9218 11.1079 13.9047 11.1133C13.8861 11.1191 13.8676 11.125 13.849 11.1309C13.828 11.1372 13.807 11.1431 13.786 11.1489C13.7714 11.1533 13.7562 11.1577 13.7416 11.1616C13.7147 11.1689 13.6879 11.1758 13.661 11.1826C13.6517 11.1851 13.6425 11.1875 13.6332 11.1899C13.6039 11.1973 13.5746 11.2041 13.5453 11.2109C13.538 11.2124 13.5306 11.2144 13.5233 11.2163C13.4916 11.2236 13.4593 11.23 13.4271 11.2363C13.4222 11.2373 13.4174 11.2383 13.4125 11.2393C13.3773 11.2461 13.3422 11.2524 13.307 11.2588C13.3051 11.2593 13.3031 11.2598 13.3007 11.2598C13.2675 11.2656 13.2338 11.271 13.2001 11.2759C13.1962 11.2764 13.1923 11.2773 13.1879 11.2778C13.037 11.3003 12.8842 11.3149 12.7294 11.3228C12.6532 11.3213 12.577 11.3203 12.5004 11.3203C12.4242 11.3203 12.3475 11.3213 12.2714 11.3228C12.1166 11.3154 11.9637 11.3003 11.8129 11.2778C11.8099 11.2773 11.807 11.2769 11.8041 11.2764C11.7694 11.271 11.7347 11.2656 11.7006 11.2598C11.7001 11.2598 11.6991 11.2593 11.6986 11.2593C11.662 11.2529 11.6254 11.2461 11.5892 11.2388C11.5858 11.2383 11.5824 11.2373 11.579 11.2368C11.5453 11.23 11.5116 11.2231 11.4784 11.2158C11.473 11.2144 11.4672 11.2134 11.4618 11.2119C11.4305 11.2051 11.3998 11.1978 11.369 11.1899C11.3617 11.188 11.3544 11.186 11.347 11.1841C11.3177 11.1768 11.2889 11.1694 11.2601 11.1611C11.2474 11.1577 11.2352 11.1538 11.2225 11.1504C11.1991 11.1436 11.1757 11.1372 11.1522 11.1304C11.1356 11.1255 11.1195 11.1201 11.1034 11.1152C11.0843 11.1094 11.0648 11.1035 11.0458 11.0972C11.0233 11.0898 11.0004 11.082 10.9779 11.0742C10.9652 11.0698 10.9525 11.0659 10.9403 11.0615C10.9139 11.0522 10.8881 11.0425 10.8617 11.0327C10.8529 11.0293 10.8446 11.0264 10.8358 11.0234C10.8065 11.0122 10.7772 11.0005 10.7484 10.9888C10.743 10.9868 10.7377 10.9849 10.7328 10.9824C10.705 10.9712 10.6776 10.9595 10.6503 10.9473C10.6439 10.9443 10.6371 10.9419 10.6307 10.939C10.601 10.9258 10.5712 10.9121 10.5414 10.8984C10.5375 10.8965 10.5341 10.895 10.5301 10.8936C8.92663 10.1475 7.81286 8.52148 7.81286 6.64062ZM22.8182 22.6753C22.7054 22.814 22.454 23.0469 22.037 23.0469H18.9554H18.5795H2.96374C2.54675 23.0469 2.29529 22.814 2.18249 22.6753C1.98767 22.4355 1.91247 22.124 1.97546 21.8198C2.99011 16.9487 7.28894 13.3916 12.2513 13.2764C12.2889 13.2778 12.327 13.2788 12.3646 13.2798C12.368 13.2798 12.371 13.2798 12.3744 13.2803C12.4164 13.2813 12.4579 13.2817 12.4999 13.2817C12.5419 13.2817 12.5839 13.2813 12.6254 13.2803C12.6288 13.2803 12.6317 13.2803 12.6351 13.2798C12.6732 13.2788 12.7108 13.2778 12.7489 13.2764C17.7118 13.3916 22.0106 16.9492 23.0248 21.8203C23.0883 22.124 23.0126 22.436 22.8182 22.6753Z" fill="#262037"/>
</svg>
