<svg width="30" height="30" viewBox="0 0 30 30" fill="none" xmlns="http://www.w3.org/2000/svg">
<path d="M17.6926 15C17.6926 16.5855 16.4199 17.8711 14.8502 17.8711C13.2805 17.8711 12.0078 16.5855 12.0078 15C12.0078 13.4145 13.2805 12.1289 14.8502 12.1289C16.4199 12.1289 17.6926 13.4145 17.6926 15Z" fill="#ED7180"/>
<path d="M21.497 9.92012C21.3601 9.54629 21.1426 9.20762 20.8589 8.92988C20.584 8.64395 20.2487 8.42363 19.8786 8.28535C19.5781 8.16758 19.1268 8.02695 18.2956 7.98887C17.3964 7.94727 17.1267 7.93848 14.8499 7.93848C12.5731 7.93848 12.3034 7.94727 11.4042 7.98887C10.573 8.02754 10.1211 8.16758 9.8212 8.28535C9.45053 8.42363 9.11582 8.64336 8.84087 8.92988C8.55779 9.20762 8.33968 9.54629 8.20278 9.92012C8.08619 10.2236 7.94697 10.6795 7.90926 11.5197C7.86808 12.4279 7.85938 12.7004 7.85938 15.0002C7.85938 17.3 7.86808 17.5725 7.90926 18.4807C7.94697 19.3203 8.08619 19.7762 8.20278 20.0797C8.33968 20.4541 8.55721 20.7922 8.84087 21.0699C9.11582 21.3559 9.45111 21.5762 9.8212 21.7145C10.1217 21.8328 10.573 21.9729 11.4048 22.0109C12.3039 22.0525 12.5731 22.0613 14.8505 22.0613C17.1279 22.0613 17.3976 22.0525 18.2961 22.0109C19.1274 21.9729 19.5793 21.8322 19.8798 21.7145C20.6234 21.4244 21.211 20.8309 21.4982 20.0797C21.6148 19.7762 21.754 19.3203 21.7917 18.4807C21.8329 17.5725 21.8416 17.3 21.8416 15.0002C21.8416 12.7004 21.8329 12.4279 21.7917 11.5197C21.7528 10.6801 21.6142 10.2236 21.497 9.92012ZM14.8499 19.4229C12.4316 19.4229 10.4709 17.443 10.4709 15.0002C10.4709 12.5574 12.4316 10.5775 14.8499 10.5775C17.2682 10.5775 19.2283 12.5574 19.2283 15.0002C19.2283 17.443 17.2682 19.4229 14.8499 19.4229ZM19.4018 11.4359C18.8368 11.4359 18.3785 10.973 18.3785 10.4023C18.3785 9.83164 18.8368 9.36875 19.4018 9.36875C19.9668 9.36875 20.425 9.83164 20.425 10.4023C20.425 10.973 19.9668 11.4359 19.4018 11.4359Z" fill="#ED7180"/>
<path d="M14.85 0C6.65002 0 0 6.71719 0 15C0 23.2828 6.65002 30 14.85 30C23.05 30 29.7 23.2828 29.7 15C29.7 6.71719 23.05 0 14.85 0ZM23.3255 18.5514C23.2843 19.4684 23.1399 20.0941 22.9293 20.642C22.4861 21.7992 21.5806 22.7139 20.4356 23.1609C19.8932 23.3736 19.2731 23.5195 18.3659 23.5611C17.4563 23.6033 17.1663 23.6133 14.85 23.6133C12.5337 23.6133 12.2437 23.6033 11.3341 23.5611C10.4269 23.5195 9.8068 23.3736 9.26443 23.1609C8.69537 22.9447 8.17968 22.6055 7.7539 22.1672C7.32001 21.7371 6.98472 21.2162 6.77067 20.6414C6.5601 20.0936 6.41566 19.4672 6.37448 18.5508C6.33271 17.6326 6.32285 17.3391 6.32285 15C6.32285 12.6609 6.33271 12.3674 6.37448 11.4486C6.41566 10.5316 6.5601 9.90586 6.77067 9.35801C6.98472 8.7832 7.32059 8.2623 7.75448 7.83223C8.18026 7.39395 8.69595 7.05469 9.26501 6.83848C9.80738 6.62578 10.4275 6.47988 11.3347 6.43828C12.2443 6.39668 12.5343 6.38613 14.8506 6.38613C17.1668 6.38613 17.4569 6.39609 18.3664 6.43828C19.2743 6.47988 19.8938 6.62578 20.4362 6.83789C21.0052 7.0541 21.5209 7.39336 21.9467 7.83164C22.3806 8.26172 22.7164 8.78262 22.9299 9.35742C23.1411 9.90527 23.2849 10.5316 23.3267 11.448C23.3679 12.3668 23.3777 12.6598 23.3777 14.9994C23.3777 17.3391 23.3673 17.6326 23.3255 18.5514Z" fill="#ED7180"/>
</svg>
