<svg width="25" height="25" viewBox="0 0 25 25" fill="none" xmlns="http://www.w3.org/2000/svg">
<path d="M14.5996 11.2304C15.1389 11.2304 15.5762 10.7932 15.5762 10.2539C15.5762 9.71456 15.1389 9.27734 14.5996 9.27734C14.0603 9.27734 13.623 9.71456 13.623 10.2539C13.623 10.7932 14.0603 11.2304 14.5996 11.2304Z" fill="#262037"/>
<path d="M14.5996 15.4785C15.1389 15.4785 15.5762 15.0413 15.5762 14.5019C15.5762 13.9626 15.1389 13.5254 14.5996 13.5254C14.0603 13.5254 13.623 13.9626 13.623 14.5019C13.623 15.0413 14.0603 15.4785 14.5996 15.4785Z" fill="#262037"/>
<path d="M18.8476 11.2304C19.387 11.2304 19.8242 10.7932 19.8242 10.2539C19.8242 9.71456 19.387 9.27734 18.8476 9.27734C18.3083 9.27734 17.8711 9.71456 17.8711 10.2539C17.8711 10.7932 18.3083 11.2304 18.8476 11.2304Z" fill="#262037"/>
<path d="M24.0232 12.2069C24.5627 12.2069 24.9998 11.7699 24.9998 11.2304V5.85932C24.9998 3.70553 23.2473 1.95311 21.0935 1.95311H19.824V0.976553C19.824 0.437007 19.387 0 18.8475 0C18.3079 0 17.8709 0.437007 17.8709 0.976553V1.95311H13.4276V0.976553C13.4276 0.437007 12.9906 0 12.451 0C11.9115 0 11.4745 0.437007 11.4745 0.976553V1.95311H7.08001V0.976553C7.08001 0.437007 6.643 0 6.10346 0C5.56391 0 5.1269 0.437007 5.1269 0.976553V1.95311H3.90621C1.75242 1.95311 0 3.70553 0 5.85932V21.0935C0 23.2473 1.75242 24.9998 3.90621 24.9998H16.2108C16.244 24.9998 16.2767 24.9978 16.3094 24.9949C16.3416 24.9983 16.3739 24.9998 16.4061 24.9998C16.6663 24.9998 16.9222 24.8958 17.1097 24.7004L24.7268 16.7904C24.9983 16.5081 25.0754 16.0912 24.9221 15.7308C24.7688 15.3705 24.4148 15.1366 24.0232 15.1366H19.3357C17.182 15.1366 15.4295 16.889 15.4295 19.0428V23.0466H3.90621C2.82907 23.0466 1.95311 22.1707 1.95311 21.0935V5.85932C1.95311 4.78218 2.82907 3.90621 3.90621 3.90621H5.1269V4.88276C5.1269 5.42231 5.56391 5.85932 6.10346 5.85932C6.643 5.85932 7.08001 5.42231 7.08001 4.88276V3.90621H11.4745V4.88276C11.4745 5.42231 11.9115 5.85932 12.451 5.85932C12.9906 5.85932 13.4276 5.42231 13.4276 4.88276V3.90621H17.8709V4.88276C17.8709 5.42231 18.3079 5.85932 18.8475 5.85932C19.387 5.85932 19.824 5.42231 19.824 4.88276V3.90621H21.0935C22.1707 3.90621 23.0466 4.78218 23.0466 5.85932V11.2304C23.0466 11.7699 23.4837 12.2069 24.0232 12.2069ZM17.3826 19.0428C17.3826 17.9656 18.2586 17.0897 19.3357 17.0897H21.7273L17.3826 21.6013V19.0428Z" fill="#262037"/>
<path d="M6.10351 11.2304C6.64284 11.2304 7.08006 10.7932 7.08006 10.2539C7.08006 9.71456 6.64284 9.27734 6.10351 9.27734C5.56417 9.27734 5.12695 9.71456 5.12695 10.2539C5.12695 10.7932 5.56417 11.2304 6.10351 11.2304Z" fill="#262037"/>
<path d="M10.3516 15.4785C10.8909 15.4785 11.3281 15.0413 11.3281 14.5019C11.3281 13.9626 10.8909 13.5254 10.3516 13.5254C9.81222 13.5254 9.375 13.9626 9.375 14.5019C9.375 15.0413 9.81222 15.4785 10.3516 15.4785Z" fill="#262037"/>
<path d="M6.10351 19.7265C6.64284 19.7265 7.08006 19.2893 7.08006 18.75C7.08006 18.2107 6.64284 17.7734 6.10351 17.7734C5.56417 17.7734 5.12695 18.2107 5.12695 18.75C5.12695 19.2893 5.56417 19.7265 6.10351 19.7265Z" fill="#262037"/>
<path d="M6.10351 15.4785C6.64284 15.4785 7.08006 15.0413 7.08006 14.5019C7.08006 13.9626 6.64284 13.5254 6.10351 13.5254C5.56417 13.5254 5.12695 13.9626 5.12695 14.5019C5.12695 15.0413 5.56417 15.4785 6.10351 15.4785Z" fill="#262037"/>
<path d="M10.3516 19.7265C10.8909 19.7265 11.3281 19.2893 11.3281 18.75C11.3281 18.2107 10.8909 17.7734 10.3516 17.7734C9.81222 17.7734 9.375 18.2107 9.375 18.75C9.375 19.2893 9.81222 19.7265 10.3516 19.7265Z" fill="#262037"/>
<path d="M10.3516 11.2304C10.8909 11.2304 11.3281 10.7932 11.3281 10.2539C11.3281 9.71456 10.8909 9.27734 10.3516 9.27734C9.81222 9.27734 9.375 9.71456 9.375 10.2539C9.375 10.7932 9.81222 11.2304 10.3516 11.2304Z" fill="#262037"/>
</svg>
