<svg width="170" height="171" viewBox="0 0 170 171" fill="none" xmlns="http://www.w3.org/2000/svg">
<path d="M165.598 57.9461C167.925 53.9159 168.489 49.9577 166.582 46.1554L164.363 41.9572C164.363 41.9572 162.851 42.9408 160.14 45.2558C145.879 18.3278 117.583 0 85.006 0C38.059 0 0 38.059 0 85.006C0 109.451 10.3154 131.473 26.832 146.982C26.82 147.102 26.784 147.222 26.772 147.342C26.0883 152.824 28.3793 156.002 28.8471 156.59L32.1936 160.572C32.1936 160.572 34.7605 157.154 36.4157 154.767C50.1856 164.375 66.9301 170.012 84.994 170.012C131.941 170.012 170 131.953 170 85.006C170 75.5422 168.453 66.4383 165.598 57.9461Z" fill="#262038"/>
<path d="M10.7833 84.3841L12.6545 85.0798L12.6305 85.8835L6.68115 83.6165L6.71714 82.6809L12.8104 80.8457L12.7744 81.6733L10.8553 82.2491L10.7833 84.3841ZM10.2436 82.393L8.49234 82.9208C8.09652 83.0407 7.73668 83.1127 7.37684 83.1967V83.2206C7.72469 83.3286 8.09652 83.4365 8.45636 83.5685L10.1716 84.2282L10.2436 82.393Z" fill="white"/>
<path d="M8.91211 67.4111C8.94809 67.0273 9.02006 66.5475 9.17599 65.9358C9.36791 65.1921 9.69176 64.7003 10.0876 64.4365C10.4474 64.1846 10.9152 64.1126 11.443 64.2446C11.9707 64.3885 12.3426 64.6524 12.5705 65.0242C12.8943 65.528 12.9303 66.2357 12.7384 66.9673C12.6784 67.1952 12.6185 67.3991 12.5225 67.5551L14.8495 68.1668L14.6575 68.9225L8.91211 67.4111ZM11.9228 67.3991C12.0067 67.2432 12.0787 67.0393 12.1507 66.7994C12.3906 65.8878 12.0907 65.2281 11.287 65.0122C10.5194 64.8083 10.0036 65.2521 9.78772 66.0797C9.70376 66.4036 9.65578 66.6675 9.65578 66.7994L11.9228 67.3991Z" fill="white"/>
<path d="M18.4718 52.8856L19.8752 54.301L19.5154 55.0206L15.0894 50.4627L15.5092 49.623L21.8064 50.5346L21.4345 51.2783L19.4554 50.9904L18.4718 52.8856ZM18.8317 50.8465L17.0205 50.5826C16.6127 50.5226 16.2528 50.4387 15.905 50.3667L15.893 50.3787C16.1689 50.6186 16.4567 50.8705 16.7206 51.1464L18.0041 52.4658L18.8317 50.8465Z" fill="white"/>
<path d="M23.9775 36.6927C24.1695 36.3448 24.4933 35.8771 24.8412 35.4692C25.3689 34.8335 25.8367 34.5097 26.3405 34.4497C26.7363 34.3897 27.1681 34.5217 27.528 34.8215C28.1397 35.3253 28.2236 36.057 27.9837 36.6807L28.0077 36.6927C28.4276 36.4408 28.9313 36.5008 29.5071 36.7887C30.2747 37.1725 30.8145 37.4364 31.0784 37.4963L30.5626 38.1201C30.3707 38.0841 29.8789 37.8562 29.1952 37.5083C28.4395 37.1125 27.9957 37.1605 27.528 37.6882L27.0602 38.252L29.0633 39.9193L28.5595 40.519L23.9775 36.6927ZM26.5804 37.8562L27.0842 37.2444C27.6119 36.6087 27.5999 35.913 27.0722 35.4692C26.4724 34.9655 25.8487 35.1814 25.3209 35.8171C25.081 36.105 24.9371 36.3329 24.8891 36.4528L26.5804 37.8562Z" fill="white"/>
<path d="M37.4473 24.1816L36.0079 25.3091L35.6001 24.7934L39.1145 22.0586L39.5223 22.5864L38.071 23.7139L41.3575 27.948L40.7338 28.4277L37.4473 24.1816Z" fill="white"/>
<path d="M56.423 16.0854C56.0392 15.3417 55.5714 14.4421 55.2595 13.7584L55.2355 13.7704C55.3435 14.5021 55.4275 15.2817 55.4994 16.1693L55.7393 19.2639L55.1996 19.5038L53.1245 17.2968C52.5128 16.6491 51.973 16.0374 51.5172 15.4616L51.5052 15.4736C51.8051 16.1693 52.1769 17.1049 52.5008 17.9445L53.4244 20.3554L52.7527 20.6673L50.6416 15.0178L51.5412 14.61L53.6762 16.829C54.216 17.4048 54.6718 17.9205 55.0676 18.4243L55.0916 18.4123C54.9717 17.8006 54.8997 17.1049 54.8277 16.3013L54.5998 13.2066L55.4994 12.7988L58.3422 18.1125L57.6465 18.4243L56.423 16.0854Z" fill="white"/>
<path d="M72.6994 11.1197L70.4085 11.5755L70.8283 13.6986L73.3831 13.1948L73.5031 13.8305L70.1806 14.4782L69.0171 8.57685L72.2077 7.95312L72.3276 8.58884L69.9047 9.06863L70.2765 10.9398L72.5675 10.484L72.6994 11.1197Z" fill="white"/>
<path d="M85.666 12.7752L85.8339 6.75391L86.6856 6.7779L88.5327 9.87251C88.9645 10.5922 89.2884 11.2399 89.5643 11.8636L89.5883 11.8516C89.5403 11.048 89.5403 10.3163 89.5643 9.36874L89.6362 6.84986L90.3679 6.87385L90.2 12.8952L89.4083 12.8712L87.5852 9.76456C87.1773 9.08087 86.8055 8.38518 86.5176 7.72547L86.4936 7.73747C86.5176 8.49313 86.5176 9.2248 86.4936 10.2204L86.4217 12.7992L85.666 12.7752Z" fill="white"/>
<path d="M105.001 9.77706L103.226 9.32126L103.394 8.68555L107.712 9.78905L107.544 10.4248L105.757 9.96897L104.438 15.1627L103.67 14.9707L105.001 9.77706Z" fill="white"/>
<path d="M117.608 18.9169C117.824 19.2647 118.195 19.6485 118.675 19.8884C119.383 20.2483 119.995 20.0803 120.259 19.5286C120.51 19.0248 120.366 18.593 119.779 17.9453C119.059 17.1896 118.735 16.47 119.119 15.7143C119.539 14.8747 120.546 14.5988 121.59 15.1266C122.142 15.4024 122.478 15.7263 122.645 15.9902L122.166 16.458C122.034 16.278 121.758 15.9302 121.266 15.6903C120.534 15.3185 120.031 15.6183 119.851 15.9902C119.599 16.4939 119.803 16.9018 120.402 17.5615C121.134 18.3651 121.386 19.0368 120.99 19.8285C120.57 20.6561 119.599 21.0759 118.327 20.4402C117.812 20.1763 117.32 19.7445 117.128 19.4086L117.608 18.9169Z" fill="white"/>
<path d="M57.1066 152.572C57.4665 152.632 57.9703 152.776 58.4261 152.956C59.1337 153.232 59.5416 153.532 59.7575 153.94C59.9254 154.264 59.9374 154.671 59.7934 155.067C59.5296 155.751 58.9298 156.039 58.3181 156.015L58.3061 156.039C58.654 156.327 58.7499 156.782 58.6659 157.37C58.558 158.15 58.486 158.69 58.522 158.929L57.8383 158.666C57.8143 158.486 57.8623 158.006 57.9703 157.31C58.0902 156.542 57.9223 156.171 57.3225 155.919L56.6988 155.679L55.8472 157.91L55.1875 157.658L57.1066 152.572ZM56.8668 155.163L57.5504 155.427C58.2581 155.703 58.8579 155.487 59.0858 154.899C59.3376 154.24 58.9658 153.76 58.2701 153.484C57.9463 153.364 57.7064 153.304 57.5864 153.292L56.8668 155.163Z" fill="white"/>
<path d="M73.3474 159.984L71.2364 159.624L70.9005 161.579L73.2515 161.987L73.1555 162.574L70.1089 162.047L71.0445 156.625L73.9712 157.129L73.8752 157.717L71.6442 157.333L71.3443 159.048L73.4554 159.408L73.3474 159.984Z" fill="white"/>
<path d="M85.09 162.575C85.4139 162.767 85.8817 162.923 86.3734 162.911C87.1051 162.899 87.5249 162.504 87.5129 161.952C87.5009 161.436 87.2011 161.148 86.4574 160.872C85.5578 160.572 84.9821 160.117 84.9701 159.337C84.9581 158.473 85.6538 157.826 86.7213 157.802C87.285 157.79 87.6928 157.91 87.9447 158.054L87.7648 158.641C87.5849 158.545 87.2131 158.389 86.7093 158.401C85.9536 158.413 85.6778 158.869 85.6897 159.241C85.7017 159.757 86.0376 160.009 86.8052 160.285C87.7408 160.632 88.2326 161.064 88.2446 161.88C88.2566 162.731 87.6449 163.475 86.3494 163.499C85.8217 163.511 85.2339 163.367 84.9341 163.175L85.09 162.575Z" fill="white"/>
<path d="M100.311 156.949L98.6681 157.297L98.5361 156.709L102.53 155.857L102.65 156.445L101.007 156.793L102.039 161.591L101.331 161.747L100.311 156.949Z" fill="white"/>
<path d="M114.465 155.917L114.621 157.74L113.949 158.016L113.518 152.211L114.309 151.875L118.195 156.205L117.5 156.505L116.276 155.138L114.465 155.917ZM115.917 154.694L114.801 153.446C114.549 153.158 114.345 152.895 114.141 152.631L114.129 152.643C114.177 152.979 114.225 153.314 114.261 153.674L114.393 155.353L115.917 154.694Z" fill="white"/>
<path d="M125.944 145.567L127.803 148.242C128.511 149.262 129.254 149.37 129.854 148.95C130.526 148.482 130.646 147.738 129.95 146.743L128.091 144.068L128.678 143.66L130.514 146.299C131.473 147.69 131.137 148.77 130.166 149.442C129.242 150.089 128.175 150.041 127.203 148.638L125.356 145.975L125.944 145.567Z" fill="white"/>
<path d="M137.351 136.295C137.543 135.983 137.866 135.587 138.214 135.228C138.742 134.676 139.174 134.424 139.642 134.388C140.013 134.352 140.385 134.508 140.697 134.796C141.225 135.3 141.261 135.959 140.997 136.523L141.021 136.535C141.417 136.331 141.885 136.415 142.388 136.715C143.072 137.111 143.54 137.387 143.78 137.447L143.276 137.974C143.096 137.938 142.676 137.698 142.064 137.327C141.405 136.919 140.997 136.931 140.529 137.387L140.061 137.866L141.789 139.51L141.297 140.025L137.351 136.295ZM139.654 137.519L140.157 136.991C140.685 136.439 140.709 135.803 140.253 135.371C139.738 134.88 139.162 135.036 138.634 135.575C138.394 135.827 138.25 136.019 138.202 136.127L139.654 137.519Z" fill="white"/>
<path d="M150.173 126.279L151.336 127.683L150.941 128.306L147.282 123.784L147.738 123.053L153.399 124.396L152.992 125.044L151.216 124.612L150.173 126.279ZM150.665 124.456L149.033 124.06C148.662 123.976 148.338 123.868 148.026 123.76L148.014 123.772C148.242 124.012 148.482 124.276 148.71 124.54L149.765 125.847L150.665 124.456Z" fill="white"/>
<path d="M158.713 113.602L153.543 111.683L153.819 110.951L157.046 110.267C157.79 110.112 158.449 110.016 159.073 109.968V109.944C158.365 109.752 157.73 109.536 156.926 109.236L154.767 108.432L154.995 107.809L160.165 109.728L159.913 110.399L156.686 111.059C155.978 111.203 155.259 111.335 154.599 111.383V111.407C155.259 111.611 155.894 111.827 156.746 112.151L158.953 112.966L158.713 113.602Z" fill="white"/>
<path d="M158.533 95.885L158.281 97.5402L157.682 97.4443L158.305 93.4141L158.905 93.51L158.641 95.1773L163.487 95.9329L163.379 96.6406L158.533 95.885Z" fill="white"/>
<path d="M66.5464 134.472C68.2136 132.865 84.4664 119.059 83.6747 119.419C80.9999 120.642 69.545 127.335 67.9618 129.159C66.6663 130.646 66.5464 134.472 66.5464 134.472Z" fill="white"/>
<path d="M94.4819 139.259C96.1492 137.651 105.781 128.799 104.989 129.159C102.314 130.383 97.3606 133.033 95.7774 134.857C94.4819 136.344 94.4819 139.259 94.4819 139.259Z" fill="white"/>
<path d="M79.9204 137.326C81.8396 135.622 90.0079 127.562 89.1083 127.922C86.0737 129.157 83.3509 130.621 81.5157 132.564C80.0164 134.135 79.9204 137.326 79.9204 137.326Z" fill="white"/>
<path d="M108.347 37.3281C108.347 37.3281 105.541 43.0376 103.298 49.1428C103.154 49.5267 103.022 49.9105 102.878 50.2943L87.8126 38.7555C87.8126 38.7555 82.3431 50.966 79.4404 58.8705C76.8375 65.9593 75.2422 71.189 74.3066 74.6075C74.5345 74.4395 74.7744 74.2836 75.0143 74.1277C81.7673 69.9296 86.985 63.6803 89.12 56.0278L89.5158 54.6004L86.3613 56.5076L88.9761 46.7799L86.6011 48.5911L88.4363 40.4227L101.87 53.197C100.563 57.1433 99.6033 60.5857 99.1116 62.4809L99.1715 62.4569C103.454 61.1255 106.764 57.719 107.976 53.4129L109.511 47.9794L107.616 49.1308L109.127 43.4574L107.328 44.8248L108.671 38.8035L118.951 48.5791C120.198 49.7666 122.093 49.9705 123.569 49.0829L108.347 37.3281Z" fill="white"/>
<path d="M75.6623 84.5504C74.6908 84.3945 71.4282 89.3843 68.0338 92.5749C67.9738 91.4474 67.9018 90.3559 67.8059 89.3243C67.6139 87.0453 62.1924 93.0786 62.1084 96.725V96.737V96.749C62.1084 96.8569 62.1444 97.1688 62.3963 97.4327C62.7081 97.7445 63.1399 97.6246 63.1399 97.6246C63.7637 97.4687 64.5553 97.1808 65.5389 96.4491L65.5629 96.4611C64.2794 103.538 62.4323 112.606 62.4323 112.606L66.2705 110.255C67.9138 109.175 68.3696 107.664 68.3696 106.201C68.3696 103.382 68.3336 99.028 68.1297 94.3741C70.7565 92.1311 72.6637 89.6002 72.6637 89.6002L72.4238 93.0786L72.6877 92.9587C75.2905 91.7352 76.9338 88.9885 76.5739 86.1337C76.466 85.2701 76.2021 84.6344 75.6623 84.5504Z" fill="white"/>
<path d="M91.7231 76.6582C91.7231 76.6582 89.3242 77.102 88.5925 79.381C86.4695 79.4889 82.2114 79.8608 81.0239 81.2282C77.6774 85.0664 78.1812 103.034 82.7271 100.767C85.5099 99.376 88.7484 86.05 89.744 81.3121L88.8324 97.0971L91.0994 95.7297C92.3588 94.974 93.0905 93.5826 92.9945 92.1073C92.7906 89.0127 92.3708 83.2193 91.7231 76.6582ZM82.5712 94.8781C81.3597 92.839 81.3837 84.8146 82.2593 82.6075C82.7991 81.2522 88.2327 80.7724 88.2327 80.7724C88.2327 80.7724 83.6507 96.6892 82.5712 94.8781Z" fill="white"/>
<path d="M124.78 56.7715C124.78 56.7715 122.813 57.0594 121.806 59.4823C119.742 59.5782 115.292 59.9381 114.081 61.3414C110.735 65.1797 111.238 83.1477 115.784 80.8807C118.507 79.5253 121.722 66.6551 122.789 61.6653L121.89 77.2103L124.84 75.4351C125.68 74.9314 126.172 74.0078 126.112 73.0242C125.92 70.2055 125.488 63.9563 124.78 56.7715ZM115.628 74.9913C114.417 72.9522 114.441 64.9278 115.316 62.7208C115.856 61.3654 121.29 60.8856 121.29 60.8856C121.29 60.8856 116.696 76.8145 115.628 74.9913Z" fill="white"/>
<path d="M46.8388 126.988C24.025 144.224 31.9415 154.096 31.9415 154.096C33.9926 152.525 39.0663 139.139 59.6251 124.373C70.8521 116.301 85.4496 106.957 85.4496 106.813C85.5096 104.534 86.5291 102.543 86.5291 102.543C86.5291 102.543 53.208 122.178 46.8388 126.988Z" fill="white"/>
<path d="M109.727 88.7115C109.943 78.3361 109.115 70.1318 108.563 66.4734C108.563 66.4734 106.272 66.7013 105.445 69.1962C103.322 69.3042 99.0515 69.676 97.864 71.0434C94.5175 74.8817 95.0213 92.8496 99.5673 90.5827C102.338 89.2033 105.685 76.0092 106.692 71.2233C106.692 74.5818 106.608 82.4503 105.828 91.1464C97.9 96.1482 93.6059 98.2232 91.3989 101.618C89.9116 103.633 86.6371 112.161 91.9027 123.484C96.5806 133.523 106.86 121.325 109.535 92.5258C109.535 92.5258 111.31 91.4103 116.84 88.3996C133.02 79.5836 169.244 60.3682 163.019 47.9297C162.887 47.6658 149.945 60.716 142.976 66.1616C129.758 76.477 116.18 84.6933 109.727 88.7115ZM99.4233 84.6933C98.2119 82.6542 98.2359 74.6298 99.1115 72.4228C99.6512 71.0674 105.085 70.5876 105.085 70.5876C105.085 70.5876 100.491 86.5045 99.4233 84.6933ZM98.4878 121.649C97.1564 124 95.1293 113.936 95.1413 108.575C95.1532 100.082 105.529 94.7568 105.529 94.7568C104.737 104.376 101.342 116.611 98.4878 121.649Z" fill="white"/>
<path d="M69.6889 73.9581C67.5059 59.2047 49.298 63.1989 39.1266 72.9626C36.0559 75.9132 34.4007 83.194 34.2807 87.8119C34.1848 91.5183 34.3167 82.8341 46.8031 75.3015C59.8533 67.421 63.0799 74.234 63.0799 74.234C63.0918 74.258 65.5268 77.8444 62.8639 84.4054C61.1847 88.5436 56.3868 92.6338 52.0808 95.5245L51.7089 80.3512C51.7089 80.3512 50.4855 78.78 47.4149 83.2659C44.1403 88.0518 35.972 104.161 41.2856 103.393C42.4011 103.237 44.7161 102.062 46.9231 100.826L44.824 122.716L48.6863 120.401C50.9893 119.022 52.4406 116.563 52.5366 113.876V113.708L52.1527 97.7075C54.6476 96.1722 57.4904 94.217 59.9612 92.082C66.1985 86.6484 70.6245 80.2793 69.6889 73.9581ZM47.1989 97.9234C47.1989 97.9234 44.2363 100.166 42.2092 100.538C41.5375 100.658 42.689 96.6999 44.848 92.4179C46.3713 89.3832 48.3144 86.3726 48.3144 86.3726L47.1989 97.9234Z" fill="white"/>
<path d="M133.98 98.9072L135.767 97.8637L130.274 87.5723L124.145 103.669L127.131 101.93L123.197 110.974L122.633 112.281L120.042 118.219L126.124 114.92L122.621 124.936C125.236 122.513 127.647 119.874 129.818 117.055L130.478 110.014L127.623 111.514L130.322 98.0556L128.475 98.8232L130.118 88.5678L134.256 97.8157L132.901 98.6073L135.971 107.483C136.235 106.956 136.931 105.504 137.183 104.964L133.98 98.9072Z" fill="white"/>
<path d="M115.605 121.242L118.303 107.784L116.456 108.552L118.099 98.2963L122.238 107.544L120.882 108.336L121.542 111.394C121.722 111.083 122.322 110.075 122.537 109.715L121.962 108.636L123.341 107.832L118.255 97.3008L112.126 113.398L115.113 111.658L108.024 127.947L114.105 124.649L111.023 133.477C113.302 132.169 115.497 130.73 117.584 129.159L118.459 119.731L115.605 121.242Z" fill="white"/>
<path d="M144.271 53.2673C144.463 51.864 141.657 48.0377 141.657 48.0377C120.714 16.6957 77.7131 9.27102 47.2348 31.7969C16.9723 54.1549 9.29572 96.4361 32.4214 126.89C33.0931 127.766 37.651 123.976 36.8114 122.86C15.2331 94.4329 19.4912 50.3886 51.5049 31.2692C81.3475 13.4332 119.778 24.6481 138.046 53.2194C138.046 53.2194 139.138 55.1865 139.809 56.194C140.565 57.3095 144.055 54.7667 144.271 53.2673Z" fill="white"/>
<path d="M151.888 78.264C151.84 77.3884 147.246 80.2192 147.342 81.8145C148.601 102.973 140.181 124.299 122.405 136.63C103.621 149.656 78.9965 150.4 58.6656 140.696C57.742 140.264 56.8304 139.821 55.9308 139.353C54.4435 138.573 50.893 143.035 51.4688 143.335C52.3204 143.779 54.0476 144.618 54.0476 144.618C100.575 167.036 154.923 129.301 151.888 78.264Z" fill="white"/>
</svg>
