<svg width="22" height="22" viewBox="0 0 22 22" fill="none" xmlns="http://www.w3.org/2000/svg">
<circle cx="11" cy="11" r="11" fill="#726A8A"/>
<path d="M14.166 8.36523L12.5488 9.98438H13.6562C13.8711 9.98438 14.0469 10.1602 14.0469 10.375C14.0469 10.5898 13.8711 10.7656 13.6562 10.7656H12.1914C11.6523 10.7656 11.2148 10.3281 11.2148 9.78906V8.32422C11.2148 8.10938 11.3906 7.93359 11.6055 7.93359C11.8203 7.93359 11.9961 8.10938 11.9961 8.32422V9.43164L13.6152 7.8125C13.7676 7.66016 14.0156 7.66016 14.168 7.8125C14.3203 7.9668 14.3203 8.21289 14.166 8.36523ZM10.4141 14.0078C10.6289 14.0078 10.8047 13.832 10.8047 13.6172V12.1523C10.8047 11.6133 10.3672 11.1758 9.82812 11.1758H8.36328C8.14844 11.1758 7.97266 11.3516 7.97266 11.5664C7.97266 11.7812 8.14844 11.957 8.36328 11.957H9.4707L7.85156 13.5762C7.69922 13.7285 7.69922 13.9766 7.85156 14.1289C7.92773 14.2051 8.02734 14.2441 8.12695 14.2441C8.22656 14.2441 8.32617 14.2051 8.40234 14.1289L10.0215 12.5098V13.6172C10.0234 13.832 10.1992 14.0078 10.4141 14.0078ZM15.6094 12.875C15.8242 12.875 16 12.6992 16 12.4844V7.5625C16 6.70117 15.2988 6 14.4375 6H7.5625C6.70117 6 6 6.70117 6 7.5625V14.4375C6 15.2988 6.70117 16 7.5625 16H14.4375C15.2988 16 16 15.2988 16 14.4375C16 14.2227 15.8242 14.0469 15.6094 14.0469C15.3945 14.0469 15.2188 14.2227 15.2188 14.4375C15.2188 14.8691 14.8691 15.2188 14.4375 15.2188H7.5625C7.13086 15.2188 6.78125 14.8691 6.78125 14.4375V7.5625C6.78125 7.13086 7.13086 6.78125 7.5625 6.78125H14.4375C14.8691 6.78125 15.2188 7.13086 15.2188 7.5625V12.4844C15.2188 12.6992 15.3945 12.875 15.6094 12.875Z" fill="white"/>
</svg>
