<svg width="22" height="22" viewBox="0 0 22 22" fill="none" xmlns="http://www.w3.org/2000/svg">
<circle cx="11" cy="11" r="11" fill="#726A8A"/>
<path d="M15 15.6806H13.9157C13.9157 13.8373 12.3976 12.3734 10.5 12.3734C8.60241 12.3734 7.08434 13.8915 7.08434 15.6806H6C6 13.2409 8.00602 11.2891 10.5 11.2891C12.994 11.2891 15 13.2951 15 15.6806Z" fill="white"/>
<path d="M10.5 10.9639C8.87349 10.9639 7.51807 9.60843 7.51807 7.98193C7.51807 6.35542 8.87349 5 10.5 5C12.1265 5 13.4819 6.35542 13.4819 7.98193C13.4819 9.60843 12.1265 10.9639 10.5 10.9639ZM10.5 6.08434C9.46987 6.08434 8.6024 6.95181 8.6024 7.98193C8.6024 9.01205 9.46987 9.87952 10.5 9.87952C11.5301 9.87952 12.3976 9.01205 12.3976 7.98193C12.3976 6.95181 11.5301 6.08434 10.5 6.08434Z" fill="white"/>
</svg>
