<svg width="19" height="20" viewBox="0 0 19 20" fill="none" xmlns="http://www.w3.org/2000/svg">
<path d="M18.7105 18.2166L14.0259 13.2666C15.2316 11.8097 15.8915 9.98069 15.8915 8.07442C15.8915 3.62296 12.3262 0 7.94573 0C3.56522 0 0 3.62296 0 8.07442C0 12.5259 3.56522 16.1488 7.94573 16.1488C9.59015 16.1488 11.1586 15.6433 12.499 14.6884L17.2181 19.677C17.415 19.8841 17.681 20 17.9643 20C18.2337 20 18.4894 19.8947 18.6828 19.7051C19.0939 19.3014 19.1078 18.6344 18.7105 18.2166ZM7.94573 2.10637C11.1828 2.10637 13.8187 4.78497 13.8187 8.07442C13.8187 11.3639 11.1828 14.0425 7.94573 14.0425C4.70871 14.0425 2.0728 11.3639 2.0728 8.07442C2.0728 4.78497 4.70871 2.10637 7.94573 2.10637Z" fill="white"/>
</svg>
