<svg width="20" height="20" viewBox="0 0 20 20" fill="none" xmlns="http://www.w3.org/2000/svg">
<path d="M19.5875 0.412462C19.2414 0.066368 18.7504 -0.0738667 18.2735 0.0374617C18.2711 0.0378523 18.2692 0.0386336 18.2668 0.0390242L2.56094 3.88278C1.05313 4.25192 0 5.59372 0 7.14568V9.21873C0 9.97381 0.598439 10.5922 1.3461 10.6238L7.25392 11.6293C7.37892 11.6504 7.50626 11.6101 7.59572 11.5203L14.5582 4.55778C14.8024 4.31364 15.1981 4.31364 15.4422 4.55778C15.6864 4.80192 15.6864 5.19763 15.4422 5.44177L8.4797 12.4043C8.39025 12.4937 8.34962 12.6211 8.37072 12.7461L9.37619 18.6539C9.40783 19.4016 10.0262 20 10.7813 20H12.8543C14.4067 20 15.7485 18.9469 16.1176 17.4391L19.961 1.73278C19.9614 1.73043 19.9621 1.72848 19.9625 1.72614C20.0739 1.24957 19.9336 0.758557 19.5875 0.412462Z" fill="#ED7180"/>
</svg>
