<svg width="17" height="16" viewBox="0 0 17 16" fill="none" xmlns="http://www.w3.org/2000/svg">
<path d="M6.62644 9.37505C5.09923 7.84784 4.75453 6.32062 4.67672 5.70873C4.65484 5.53967 4.71328 5.36998 4.83422 5.24966L6.07018 4.01433C6.25206 3.83276 6.28425 3.54963 6.14799 3.3315L4.18015 0.276133C4.02952 0.0348788 3.71982 -0.0523104 3.46545 0.0748795L0.306324 1.56272C0.100695 1.66397 -0.0205576 1.88273 0.00288037 2.11086C0.168508 3.68338 0.853834 7.54877 4.65266 11.3476C8.45148 15.1464 12.3162 15.832 13.8894 15.9974C14.1175 16.0208 14.3363 15.8996 14.4375 15.6939L15.9254 12.5351C16.0522 12.281 15.9657 11.9726 15.7254 11.8213L12.67 9.85413C12.4522 9.71756 12.169 9.74975 11.9872 9.93131L10.7518 11.1673C10.6315 11.2882 10.4618 11.3467 10.2928 11.3248C9.68087 11.247 8.15366 10.9023 6.62644 9.37505Z" fill="white"/>
<path d="M12.6909 8.55234C12.3862 8.55234 12.139 8.30546 12.139 8.00045C12.1365 5.71603 10.2852 3.86506 8.0011 3.86256C7.69641 3.86256 7.44922 3.61568 7.44922 3.31067C7.44922 3.00567 7.6961 2.75879 8.0011 2.75879C10.8946 2.76191 13.2393 5.10665 13.2425 8.00014C13.2425 8.30514 12.9956 8.55234 12.6909 8.55234Z" fill="white"/>
<path d="M15.4492 8.55204C15.1445 8.55204 14.8973 8.30516 14.8973 8.00015C14.8929 4.19289 11.8079 1.10783 8.00062 1.10346C7.69592 1.10346 7.44873 0.856579 7.44873 0.551573C7.44873 0.246567 7.69624 0 8.00093 0C12.4173 0.00500009 15.9961 3.58382 16.0011 8.00015C16.0011 8.1464 15.943 8.28672 15.8395 8.39016C15.7361 8.49391 15.5958 8.55204 15.4492 8.55204Z" fill="white"/>
</svg>
