<svg width="1200" height="65" viewBox="0 0 1200 65" fill="none" xmlns="http://www.w3.org/2000/svg">
<path d="M1200 0.000316626L1200 65.0002C1188.46 65.0002 1188.46 58.962 1176.92 58.962C1165.38 58.962 1165.38 65.0002 1153.83 65.0002C1142.29 65.0002 1142.29 58.962 1130.75 58.962C1119.21 58.962 1119.21 65.0002 1107.67 65.0002C1096.13 65.0002 1096.13 58.962 1084.59 58.9619C1073.05 58.9619 1073.05 65.0002 1061.52 65.0002C1049.98 65.0002 1049.98 58.9619 1038.44 58.9619C1026.91 58.9619 1026.91 65.0002 1015.37 65.0002C1003.82 65.0002 1003.82 58.9619 992.29 58.9619C980.749 58.9619 980.749 65.0002 969.214 65.0002C957.673 65.0002 957.673 58.9619 946.139 58.9619C934.597 58.9619 934.597 65.0002 923.063 65.0002C911.529 65.0002 911.522 58.9619 899.987 58.9619C888.446 58.9619 888.446 65.0002 876.912 65.0002C865.37 65.0002 865.37 58.9619 853.836 58.9619C842.295 58.9619 842.295 65.0001 830.76 65.0001C819.219 65.0001 819.219 58.9619 807.685 58.9619C796.15 58.9619 796.15 65.0001 784.609 65.0001C773.075 65.0001 773.075 58.9619 761.533 58.9619C749.999 58.9619 749.999 65.0001 738.458 65.0001C726.923 65.0001 726.923 58.9619 715.382 58.9619C703.841 58.9619 703.841 65.0001 692.306 65.0001C680.772 65.0001 680.772 58.9619 669.231 58.9619C657.682 58.9619 657.682 65.0001 646.148 65.0001C634.614 65.0001 634.614 58.9619 623.072 58.9619C611.538 58.9619 611.538 65.0001 599.996 65.0001C588.455 65.0001 588.455 58.9619 576.914 58.9619C565.379 58.9619 565.379 65.0001 553.838 65.0001C542.296 65.0001 542.296 58.9619 530.755 58.9619C519.214 58.9618 519.214 65.0001 507.672 65.0001C496.131 65.0001 496.131 58.9618 484.596 58.9618C473.055 58.9618 473.055 65.0001 461.521 65.0001C449.979 65.0001 449.979 58.9618 438.445 58.9618C426.911 58.9618 426.911 65.0001 415.369 65.0001C403.828 65.0001 403.828 58.9618 392.294 58.9618C380.76 58.9618 380.745 65.0001 369.211 65.0001C357.669 65.0001 357.669 58.9618 346.135 58.9618C334.594 58.9618 334.594 65.0001 323.06 65.0001C311.518 65.0001 311.518 58.9618 299.984 58.9618C288.442 58.9618 288.442 65.0001 276.908 65C265.367 65 265.367 58.9618 253.832 58.9618C242.291 58.9618 242.291 65 230.757 65C219.215 65 219.215 58.9618 207.681 58.9618C196.147 58.9618 196.147 65 184.605 65C173.071 65 173.071 58.9618 161.53 58.9618C149.996 58.9618 149.996 65 138.454 65C126.92 65 126.92 58.9618 115.378 58.9618C103.837 58.9618 103.837 65 92.3027 65C80.7685 65 80.7685 58.9618 69.227 58.9618C57.6856 58.9618 57.6856 65 46.1442 65C34.6099 65 34.6099 58.9618 23.0757 58.9618C11.5343 58.9618 11.5343 65 0 65L1.13649e-05 0.000106812L1200 0.000316626Z" fill="#ED7180"/>
</svg>
